<?xml version="1.0" encoding="UTF-8" standalone="no"?>
<!DOCTYPE svg PUBLIC "-//W3C//DTD SVG 1.1//EN"
 "http://www.w3.org/Graphics/SVG/1.1/DTD/svg11.dtd">
<!-- Generated by graphviz version 2.47.0 (20210316.0004)
 -->
<!-- Title: dbml Pages: 1 -->
<svg width="2198pt" height="1694pt"
 viewBox="0.00 0.00 2197.72 1694.20" xmlns="http://www.w3.org/2000/svg" xmlns:xlink="http://www.w3.org/1999/xlink">
<g id="graph0" class="graph" transform="scale(1 1) rotate(0) translate(4 1690.2)">
<title>dbml</title>
<!-- products -->
<g id="products" class="node">
<title>products</title>
<ellipse fill="none" stroke="black" stroke-width="0" cx="816.65" cy="-299.81" rx="260.43" ry="299.63"/>
<polygon fill="#1d71b8" stroke="transparent" points="634.65,-449.81 634.65,-509.81 998.65,-509.81 998.65,-449.81 634.65,-449.81"/>
<polygon fill="none" stroke="#29235c" points="634.65,-449.81 634.65,-509.81 998.65,-509.81 998.65,-449.81 634.65,-449.81"/>
<text text-anchor="start" x="693.05" y="-471.01" font-family="Helvetica,sans-Serif" font-weight="bold" font-size="32.00" fill="#ffffff"> &#160;&#160;&#160;&#160;&#160;&#160;products &#160;&#160;&#160;&#160;&#160;&#160;</text>
<polygon fill="#e7e2dd" stroke="transparent" points="634.65,-389.81 634.65,-449.81 998.65,-449.81 998.65,-389.81 634.65,-389.81"/>
<polygon fill="none" stroke="#29235c" points="634.65,-389.81 634.65,-449.81 998.65,-449.81 998.65,-389.81 634.65,-389.81"/>
<text text-anchor="start" x="645.65" y="-411.01" font-family="Helvetica,sans-Serif" font-weight="bold" font-size="32.00" fill="#29235c">id</text>
<text text-anchor="start" x="670.54" y="-411.01" font-family="Helvetica,sans-Serif" font-size="32.00" fill="#29235c"> &#160;&#160;&#160;</text>
<text text-anchor="start" x="936.07" y="-411.01" font-family="Helvetica,sans-Serif" font-style="italic" font-size="32.00" fill="#29235c">text</text>
<polygon fill="#e7e2dd" stroke="transparent" points="634.65,-329.81 634.65,-389.81 998.65,-389.81 998.65,-329.81 634.65,-329.81"/>
<polygon fill="none" stroke="#29235c" points="634.65,-329.81 634.65,-389.81 998.65,-389.81 998.65,-329.81 634.65,-329.81"/>
<text text-anchor="start" x="645.65" y="-350.01" font-family="Helvetica,sans-Serif" font-size="32.00" fill="#29235c">product_name &#160;&#160;&#160;</text>
<text text-anchor="start" x="936.07" y="-351.01" font-family="Helvetica,sans-Serif" font-style="italic" font-size="32.00" fill="#29235c">text</text>
<polygon fill="#e7e2dd" stroke="transparent" points="634.65,-269.81 634.65,-329.81 998.65,-329.81 998.65,-269.81 634.65,-269.81"/>
<polygon fill="none" stroke="#29235c" points="634.65,-269.81 634.65,-329.81 998.65,-329.81 998.65,-269.81 634.65,-269.81"/>
<text text-anchor="start" x="645.65" y="-290.01" font-family="Helvetica,sans-Serif" font-size="32.00" fill="#29235c">price &#160;&#160;&#160;</text>
<text text-anchor="start" x="936.07" y="-291.01" font-family="Helvetica,sans-Serif" font-style="italic" font-size="32.00" fill="#29235c">text</text>
<polygon fill="#e7e2dd" stroke="transparent" points="634.65,-209.81 634.65,-269.81 998.65,-269.81 998.65,-209.81 634.65,-209.81"/>
<polygon fill="none" stroke="#29235c" points="634.65,-209.81 634.65,-269.81 998.65,-269.81 998.65,-209.81 634.65,-209.81"/>
<text text-anchor="start" x="645.65" y="-230.01" font-family="Helvetica,sans-Serif" font-size="32.00" fill="#29235c">quantity &#160;&#160;&#160;</text>
<text text-anchor="start" x="953.86" y="-231.01" font-family="Helvetica,sans-Serif" font-style="italic" font-size="32.00" fill="#29235c">int</text>
<polygon fill="#e7e2dd" stroke="transparent" points="634.65,-149.81 634.65,-209.81 998.65,-209.81 998.65,-149.81 634.65,-149.81"/>
<polygon fill="none" stroke="#29235c" points="634.65,-149.81 634.65,-209.81 998.65,-209.81 998.65,-149.81 634.65,-149.81"/>
<text text-anchor="start" x="645.65" y="-170.01" font-family="Helvetica,sans-Serif" font-size="32.00" fill="#29235c">created_at &#160;&#160;&#160;</text>
<text text-anchor="start" x="840.09" y="-171.01" font-family="Helvetica,sans-Serif" font-style="italic" font-size="32.00" fill="#29235c">timestamp</text>
<polygon fill="#e7e2dd" stroke="transparent" points="634.65,-89.81 634.65,-149.81 998.65,-149.81 998.65,-89.81 634.65,-89.81"/>
<polygon fill="none" stroke="#29235c" points="634.65,-89.81 634.65,-149.81 998.65,-149.81 998.65,-89.81 634.65,-89.81"/>
<text text-anchor="start" x="645.31" y="-110.01" font-family="Helvetica,sans-Serif" font-size="32.00" fill="#29235c">updated_at &#160;&#160;&#160;</text>
<text text-anchor="start" x="840.37" y="-111.01" font-family="Helvetica,sans-Serif" font-style="italic" font-size="32.00" fill="#29235c">timestamp</text>
<polygon fill="none" stroke="#29235c" stroke-width="2" points="633.65,-88.81 633.65,-510.81 999.65,-510.81 999.65,-88.81 633.65,-88.81"/>
</g>
<!-- cart_items -->
<g id="cart_items" class="node">
<title>cart_items</title>
<ellipse fill="none" stroke="black" stroke-width="0" cx="1929.51" cy="-870.81" rx="260.43" ry="342.48"/>
<polygon fill="#1d71b8" stroke="transparent" points="1747.51,-1050.81 1747.51,-1110.81 2111.51,-1110.81 2111.51,-1050.81 1747.51,-1050.81"/>
<polygon fill="none" stroke="#29235c" points="1747.51,-1050.81 1747.51,-1110.81 2111.51,-1110.81 2111.51,-1050.81 1747.51,-1050.81"/>
<text text-anchor="start" x="1793.48" y="-1072.01" font-family="Helvetica,sans-Serif" font-weight="bold" font-size="32.00" fill="#ffffff"> &#160;&#160;&#160;&#160;&#160;&#160;cart_items &#160;&#160;&#160;&#160;&#160;&#160;</text>
<polygon fill="#e7e2dd" stroke="transparent" points="1747.51,-990.81 1747.51,-1050.81 2111.51,-1050.81 2111.51,-990.81 1747.51,-990.81"/>
<polygon fill="none" stroke="#29235c" points="1747.51,-990.81 1747.51,-1050.81 2111.51,-1050.81 2111.51,-990.81 1747.51,-990.81"/>
<text text-anchor="start" x="1758.51" y="-1012.01" font-family="Helvetica,sans-Serif" font-weight="bold" font-size="32.00" fill="#29235c">id</text>
<text text-anchor="start" x="1783.4" y="-1012.01" font-family="Helvetica,sans-Serif" font-size="32.00" fill="#29235c"> &#160;&#160;&#160;</text>
<text text-anchor="start" x="2048.93" y="-1012.01" font-family="Helvetica,sans-Serif" font-style="italic" font-size="32.00" fill="#29235c">text</text>
<polygon fill="#e7e2dd" stroke="transparent" points="1747.51,-930.81 1747.51,-990.81 2111.51,-990.81 2111.51,-930.81 1747.51,-930.81"/>
<polygon fill="none" stroke="#29235c" points="1747.51,-930.81 1747.51,-990.81 2111.51,-990.81 2111.51,-930.81 1747.51,-930.81"/>
<text text-anchor="start" x="1758.51" y="-951.01" font-family="Helvetica,sans-Serif" font-size="32.00" fill="#29235c">cart_id &#160;&#160;&#160;</text>
<text text-anchor="start" x="2048.93" y="-952.01" font-family="Helvetica,sans-Serif" font-style="italic" font-size="32.00" fill="#29235c">text</text>
<polygon fill="#e7e2dd" stroke="transparent" points="1747.51,-870.81 1747.51,-930.81 2111.51,-930.81 2111.51,-870.81 1747.51,-870.81"/>
<polygon fill="none" stroke="#29235c" points="1747.51,-870.81 1747.51,-930.81 2111.51,-930.81 2111.51,-870.81 1747.51,-870.81"/>
<text text-anchor="start" x="1758.51" y="-891.01" font-family="Helvetica,sans-Serif" font-size="32.00" fill="#29235c">product_id &#160;&#160;&#160;</text>
<text text-anchor="start" x="2048.93" y="-892.01" font-family="Helvetica,sans-Serif" font-style="italic" font-size="32.00" fill="#29235c">text</text>
<polygon fill="#e7e2dd" stroke="transparent" points="1747.51,-810.81 1747.51,-870.81 2111.51,-870.81 2111.51,-810.81 1747.51,-810.81"/>
<polygon fill="none" stroke="#29235c" points="1747.51,-810.81 1747.51,-870.81 2111.51,-870.81 2111.51,-810.81 1747.51,-810.81"/>
<text text-anchor="start" x="1758.51" y="-831.01" font-family="Helvetica,sans-Serif" font-size="32.00" fill="#29235c">quantity &#160;&#160;&#160;</text>
<text text-anchor="start" x="2066.72" y="-832.01" font-family="Helvetica,sans-Serif" font-style="italic" font-size="32.00" fill="#29235c">int</text>
<polygon fill="#e7e2dd" stroke="transparent" points="1747.51,-750.81 1747.51,-810.81 2111.51,-810.81 2111.51,-750.81 1747.51,-750.81"/>
<polygon fill="none" stroke="#29235c" points="1747.51,-750.81 1747.51,-810.81 2111.51,-810.81 2111.51,-750.81 1747.51,-750.81"/>
<text text-anchor="start" x="1758.51" y="-771.01" font-family="Helvetica,sans-Serif" font-size="32.00" fill="#29235c">price &#160;&#160;&#160;</text>
<text text-anchor="start" x="1986.73" y="-772.01" font-family="Helvetica,sans-Serif" font-style="italic" font-size="32.00" fill="#29235c">numeric</text>
<polygon fill="#e7e2dd" stroke="transparent" points="1747.51,-690.81 1747.51,-750.81 2111.51,-750.81 2111.51,-690.81 1747.51,-690.81"/>
<polygon fill="none" stroke="#29235c" points="1747.51,-690.81 1747.51,-750.81 2111.51,-750.81 2111.51,-690.81 1747.51,-690.81"/>
<text text-anchor="start" x="1758.51" y="-711.01" font-family="Helvetica,sans-Serif" font-size="32.00" fill="#29235c">created_at &#160;&#160;&#160;</text>
<text text-anchor="start" x="1952.95" y="-712.01" font-family="Helvetica,sans-Serif" font-style="italic" font-size="32.00" fill="#29235c">timestamp</text>
<polygon fill="#e7e2dd" stroke="transparent" points="1747.51,-630.81 1747.51,-690.81 2111.51,-690.81 2111.51,-630.81 1747.51,-630.81"/>
<polygon fill="none" stroke="#29235c" points="1747.51,-630.81 1747.51,-690.81 2111.51,-690.81 2111.51,-630.81 1747.51,-630.81"/>
<text text-anchor="start" x="1758.17" y="-651.01" font-family="Helvetica,sans-Serif" font-size="32.00" fill="#29235c">updated_at &#160;&#160;&#160;</text>
<text text-anchor="start" x="1953.23" y="-652.01" font-family="Helvetica,sans-Serif" font-style="italic" font-size="32.00" fill="#29235c">timestamp</text>
<polygon fill="none" stroke="#29235c" stroke-width="2" points="1746.51,-629.81 1746.51,-1111.81 2112.51,-1111.81 2112.51,-629.81 1746.51,-629.81"/>
</g>
<!-- products&#45;&gt;cart_items -->
<!-- products&#45;&gt;cart_items -->
<g id="edge8" class="edge">
<title>products:e&#45;&gt;cart_items:w</title>
<path fill="none" stroke="#29235c" stroke-width="3" d="M999.65,-419.81C1281.27,-419.81 1412.62,-245.85 1633.29,-420.81 1802.28,-554.79 1536.15,-889.79 1736.29,-900.55"/>
<polygon fill="#29235c" stroke="#29235c" stroke-width="3" points="1736.42,-904.05 1746.51,-900.81 1736.6,-897.05 1736.42,-904.05"/>
<text text-anchor="middle" x="1740.28" y="-910.41" font-family="Helvetica,sans-Serif" font-size="32.00" fill="#29235c">*</text>
<text text-anchor="middle" x="990.75" y="-391.01" font-family="Helvetica,sans-Serif" font-size="32.00" fill="#29235c">1</text>
</g>
<!-- order_items -->
<g id="order_items" class="node">
<title>order_items</title>
<ellipse fill="none" stroke="black" stroke-width="0" cx="1373.08" cy="-810.81" rx="260.43" ry="342.48"/>
<polygon fill="#1d71b8" stroke="transparent" points="1191.08,-990.81 1191.08,-1050.81 1555.08,-1050.81 1555.08,-990.81 1191.08,-990.81"/>
<polygon fill="none" stroke="#29235c" points="1191.08,-990.81 1191.08,-1050.81 1555.08,-1050.81 1555.08,-990.81 1191.08,-990.81"/>
<text text-anchor="start" x="1226.38" y="-1012.01" font-family="Helvetica,sans-Serif" font-weight="bold" font-size="32.00" fill="#ffffff"> &#160;&#160;&#160;&#160;&#160;&#160;order_items &#160;&#160;&#160;&#160;&#160;&#160;</text>
<polygon fill="#e7e2dd" stroke="transparent" points="1191.08,-930.81 1191.08,-990.81 1555.08,-990.81 1555.08,-930.81 1191.08,-930.81"/>
<polygon fill="none" stroke="#29235c" points="1191.08,-930.81 1191.08,-990.81 1555.08,-990.81 1555.08,-930.81 1191.08,-930.81"/>
<text text-anchor="start" x="1202.08" y="-952.01" font-family="Helvetica,sans-Serif" font-weight="bold" font-size="32.00" fill="#29235c">id</text>
<text text-anchor="start" x="1226.97" y="-952.01" font-family="Helvetica,sans-Serif" font-size="32.00" fill="#29235c"> &#160;&#160;&#160;</text>
<text text-anchor="start" x="1492.5" y="-952.01" font-family="Helvetica,sans-Serif" font-style="italic" font-size="32.00" fill="#29235c">text</text>
<polygon fill="#e7e2dd" stroke="transparent" points="1191.08,-870.81 1191.08,-930.81 1555.08,-930.81 1555.08,-870.81 1191.08,-870.81"/>
<polygon fill="none" stroke="#29235c" points="1191.08,-870.81 1191.08,-930.81 1555.08,-930.81 1555.08,-870.81 1191.08,-870.81"/>
<text text-anchor="start" x="1202.08" y="-891.01" font-family="Helvetica,sans-Serif" font-size="32.00" fill="#29235c">order_id &#160;&#160;&#160;</text>
<text text-anchor="start" x="1492.5" y="-892.01" font-family="Helvetica,sans-Serif" font-style="italic" font-size="32.00" fill="#29235c">text</text>
<polygon fill="#e7e2dd" stroke="transparent" points="1191.08,-810.81 1191.08,-870.81 1555.08,-870.81 1555.08,-810.81 1191.08,-810.81"/>
<polygon fill="none" stroke="#29235c" points="1191.08,-810.81 1191.08,-870.81 1555.08,-870.81 1555.08,-810.81 1191.08,-810.81"/>
<text text-anchor="start" x="1202.08" y="-831.01" font-family="Helvetica,sans-Serif" font-size="32.00" fill="#29235c">product_id &#160;&#160;&#160;</text>
<text text-anchor="start" x="1492.5" y="-832.01" font-family="Helvetica,sans-Serif" font-style="italic" font-size="32.00" fill="#29235c">text</text>
<polygon fill="#e7e2dd" stroke="transparent" points="1191.08,-750.81 1191.08,-810.81 1555.08,-810.81 1555.08,-750.81 1191.08,-750.81"/>
<polygon fill="none" stroke="#29235c" points="1191.08,-750.81 1191.08,-810.81 1555.08,-810.81 1555.08,-750.81 1191.08,-750.81"/>
<text text-anchor="start" x="1202.08" y="-771.01" font-family="Helvetica,sans-Serif" font-size="32.00" fill="#29235c">quantity &#160;&#160;&#160;</text>
<text text-anchor="start" x="1510.29" y="-772.01" font-family="Helvetica,sans-Serif" font-style="italic" font-size="32.00" fill="#29235c">int</text>
<polygon fill="#e7e2dd" stroke="transparent" points="1191.08,-690.81 1191.08,-750.81 1555.08,-750.81 1555.08,-690.81 1191.08,-690.81"/>
<polygon fill="none" stroke="#29235c" points="1191.08,-690.81 1191.08,-750.81 1555.08,-750.81 1555.08,-690.81 1191.08,-690.81"/>
<text text-anchor="start" x="1202.08" y="-711.01" font-family="Helvetica,sans-Serif" font-size="32.00" fill="#29235c">price &#160;&#160;&#160;</text>
<text text-anchor="start" x="1430.3" y="-712.01" font-family="Helvetica,sans-Serif" font-style="italic" font-size="32.00" fill="#29235c">numeric</text>
<polygon fill="#e7e2dd" stroke="transparent" points="1191.08,-630.81 1191.08,-690.81 1555.08,-690.81 1555.08,-630.81 1191.08,-630.81"/>
<polygon fill="none" stroke="#29235c" points="1191.08,-630.81 1191.08,-690.81 1555.08,-690.81 1555.08,-630.81 1191.08,-630.81"/>
<text text-anchor="start" x="1202.08" y="-651.01" font-family="Helvetica,sans-Serif" font-size="32.00" fill="#29235c">created_at &#160;&#160;&#160;</text>
<text text-anchor="start" x="1396.52" y="-652.01" font-family="Helvetica,sans-Serif" font-style="italic" font-size="32.00" fill="#29235c">timestamp</text>
<polygon fill="#e7e2dd" stroke="transparent" points="1191.08,-570.81 1191.08,-630.81 1555.08,-630.81 1555.08,-570.81 1191.08,-570.81"/>
<polygon fill="none" stroke="#29235c" points="1191.08,-570.81 1191.08,-630.81 1555.08,-630.81 1555.08,-570.81 1191.08,-570.81"/>
<text text-anchor="start" x="1201.74" y="-591.01" font-family="Helvetica,sans-Serif" font-size="32.00" fill="#29235c">updated_at &#160;&#160;&#160;</text>
<text text-anchor="start" x="1396.8" y="-592.01" font-family="Helvetica,sans-Serif" font-style="italic" font-size="32.00" fill="#29235c">timestamp</text>
<polygon fill="none" stroke="#29235c" stroke-width="2" points="1190.08,-569.81 1190.08,-1051.81 1556.08,-1051.81 1556.08,-569.81 1190.08,-569.81"/>
</g>
<!-- products&#45;&gt;order_items -->
<!-- products&#45;&gt;order_items -->
<g id="edge10" class="edge">
<title>products:e&#45;&gt;order_items:w</title>
<path fill="none" stroke="#29235c" stroke-width="3" d="M999.65,-419.81C1201.5,-419.81 992.12,-826.55 1179.92,-840.45"/>
<polygon fill="#29235c" stroke="#29235c" stroke-width="3" points="1179.96,-843.95 1190.08,-840.81 1180.21,-836.96 1179.96,-843.95"/>
<text text-anchor="middle" x="1196.3" y="-812.01" font-family="Helvetica,sans-Serif" font-size="32.00" fill="#29235c">*</text>
<text text-anchor="middle" x="990.75" y="-429.41" font-family="Helvetica,sans-Serif" font-size="32.00" fill="#29235c">1</text>
</g>
<!-- carts -->
<g id="carts" class="node">
<title>carts</title>
<ellipse fill="none" stroke="black" stroke-width="0" cx="1373.08" cy="-1428.81" rx="260.43" ry="257.27"/>
<polygon fill="#1d71b8" stroke="transparent" points="1191.08,-1548.81 1191.08,-1608.81 1555.08,-1608.81 1555.08,-1548.81 1191.08,-1548.81"/>
<polygon fill="none" stroke="#29235c" points="1191.08,-1548.81 1191.08,-1608.81 1555.08,-1608.81 1555.08,-1548.81 1191.08,-1548.81"/>
<text text-anchor="start" x="1276.16" y="-1570.01" font-family="Helvetica,sans-Serif" font-weight="bold" font-size="32.00" fill="#ffffff"> &#160;&#160;&#160;&#160;&#160;&#160;carts &#160;&#160;&#160;&#160;&#160;&#160;</text>
<polygon fill="#e7e2dd" stroke="transparent" points="1191.08,-1488.81 1191.08,-1548.81 1555.08,-1548.81 1555.08,-1488.81 1191.08,-1488.81"/>
<polygon fill="none" stroke="#29235c" points="1191.08,-1488.81 1191.08,-1548.81 1555.08,-1548.81 1555.08,-1488.81 1191.08,-1488.81"/>
<text text-anchor="start" x="1202.08" y="-1510.01" font-family="Helvetica,sans-Serif" font-weight="bold" font-size="32.00" fill="#29235c">id</text>
<text text-anchor="start" x="1226.97" y="-1510.01" font-family="Helvetica,sans-Serif" font-size="32.00" fill="#29235c"> &#160;&#160;&#160;</text>
<text text-anchor="start" x="1492.5" y="-1510.01" font-family="Helvetica,sans-Serif" font-style="italic" font-size="32.00" fill="#29235c">text</text>
<polygon fill="#e7e2dd" stroke="transparent" points="1191.08,-1428.81 1191.08,-1488.81 1555.08,-1488.81 1555.08,-1428.81 1191.08,-1428.81"/>
<polygon fill="none" stroke="#29235c" points="1191.08,-1428.81 1191.08,-1488.81 1555.08,-1488.81 1555.08,-1428.81 1191.08,-1428.81"/>
<text text-anchor="start" x="1202.08" y="-1449.01" font-family="Helvetica,sans-Serif" font-size="32.00" fill="#29235c">user_id &#160;&#160;&#160;</text>
<text text-anchor="start" x="1492.5" y="-1450.01" font-family="Helvetica,sans-Serif" font-style="italic" font-size="32.00" fill="#29235c">text</text>
<polygon fill="#e7e2dd" stroke="transparent" points="1191.08,-1368.81 1191.08,-1428.81 1555.08,-1428.81 1555.08,-1368.81 1191.08,-1368.81"/>
<polygon fill="none" stroke="#29235c" points="1191.08,-1368.81 1191.08,-1428.81 1555.08,-1428.81 1555.08,-1368.81 1191.08,-1368.81"/>
<text text-anchor="start" x="1202.08" y="-1389.01" font-family="Helvetica,sans-Serif" font-size="32.00" fill="#29235c">total_price &#160;&#160;&#160;</text>
<text text-anchor="start" x="1510.29" y="-1390.01" font-family="Helvetica,sans-Serif" font-style="italic" font-size="32.00" fill="#29235c">int</text>
<polygon fill="#e7e2dd" stroke="transparent" points="1191.08,-1308.81 1191.08,-1368.81 1555.08,-1368.81 1555.08,-1308.81 1191.08,-1308.81"/>
<polygon fill="none" stroke="#29235c" points="1191.08,-1308.81 1191.08,-1368.81 1555.08,-1368.81 1555.08,-1308.81 1191.08,-1308.81"/>
<text text-anchor="start" x="1202.08" y="-1329.01" font-family="Helvetica,sans-Serif" font-size="32.00" fill="#29235c">created_at &#160;&#160;&#160;</text>
<text text-anchor="start" x="1396.52" y="-1330.01" font-family="Helvetica,sans-Serif" font-style="italic" font-size="32.00" fill="#29235c">timestamp</text>
<polygon fill="#e7e2dd" stroke="transparent" points="1191.08,-1248.81 1191.08,-1308.81 1555.08,-1308.81 1555.08,-1248.81 1191.08,-1248.81"/>
<polygon fill="none" stroke="#29235c" points="1191.08,-1248.81 1191.08,-1308.81 1555.08,-1308.81 1555.08,-1248.81 1191.08,-1248.81"/>
<text text-anchor="start" x="1201.74" y="-1269.01" font-family="Helvetica,sans-Serif" font-size="32.00" fill="#29235c">updated_at &#160;&#160;&#160;</text>
<text text-anchor="start" x="1396.8" y="-1270.01" font-family="Helvetica,sans-Serif" font-style="italic" font-size="32.00" fill="#29235c">timestamp</text>
<polygon fill="none" stroke="#29235c" stroke-width="2" points="1190.08,-1247.81 1190.08,-1609.81 1556.08,-1609.81 1556.08,-1247.81 1190.08,-1247.81"/>
</g>
<!-- carts&#45;&gt;cart_items -->
<!-- carts&#45;&gt;cart_items -->
<g id="edge2" class="edge">
<title>carts:e&#45;&gt;cart_items:w</title>
<path fill="none" stroke="#29235c" stroke-width="3" d="M1556.08,-1518.81C1814.67,-1518.81 1493.16,-975.43 1736.45,-961.1"/>
<polygon fill="#29235c" stroke="#29235c" stroke-width="3" points="1736.61,-964.6 1746.51,-960.81 1736.41,-957.6 1736.61,-964.6"/>
<text text-anchor="middle" x="1740.28" y="-970.41" font-family="Helvetica,sans-Serif" font-size="32.00" fill="#29235c">*</text>
<text text-anchor="middle" x="1547.18" y="-1528.41" font-family="Helvetica,sans-Serif" font-size="32.00" fill="#29235c">1</text>
</g>
<!-- users -->
<g id="users" class="node">
<title>users</title>
<ellipse fill="none" stroke="black" stroke-width="0" cx="260.22" cy="-1263.81" rx="260.43" ry="299.63"/>
<polygon fill="#1d71b8" stroke="transparent" points="78.22,-1413.81 78.22,-1473.81 442.22,-1473.81 442.22,-1413.81 78.22,-1413.81"/>
<polygon fill="none" stroke="#29235c" points="78.22,-1413.81 78.22,-1473.81 442.22,-1473.81 442.22,-1413.81 78.22,-1413.81"/>
<text text-anchor="start" x="158.85" y="-1435.01" font-family="Helvetica,sans-Serif" font-weight="bold" font-size="32.00" fill="#ffffff"> &#160;&#160;&#160;&#160;&#160;&#160;users &#160;&#160;&#160;&#160;&#160;&#160;</text>
<polygon fill="#e7e2dd" stroke="transparent" points="78.22,-1353.81 78.22,-1413.81 442.22,-1413.81 442.22,-1353.81 78.22,-1353.81"/>
<polygon fill="none" stroke="#29235c" points="78.22,-1353.81 78.22,-1413.81 442.22,-1413.81 442.22,-1353.81 78.22,-1353.81"/>
<text text-anchor="start" x="89.22" y="-1375.01" font-family="Helvetica,sans-Serif" font-weight="bold" font-size="32.00" fill="#29235c">id</text>
<text text-anchor="start" x="114.1" y="-1375.01" font-family="Helvetica,sans-Serif" font-size="32.00" fill="#29235c"> &#160;&#160;&#160;</text>
<text text-anchor="start" x="379.64" y="-1375.01" font-family="Helvetica,sans-Serif" font-style="italic" font-size="32.00" fill="#29235c">text</text>
<polygon fill="#e7e2dd" stroke="transparent" points="78.22,-1293.81 78.22,-1353.81 442.22,-1353.81 442.22,-1293.81 78.22,-1293.81"/>
<polygon fill="none" stroke="#29235c" points="78.22,-1293.81 78.22,-1353.81 442.22,-1353.81 442.22,-1293.81 78.22,-1293.81"/>
<text text-anchor="start" x="89.22" y="-1314.01" font-family="Helvetica,sans-Serif" font-size="32.00" fill="#29235c">username &#160;&#160;&#160;</text>
<text text-anchor="start" x="379.64" y="-1315.01" font-family="Helvetica,sans-Serif" font-style="italic" font-size="32.00" fill="#29235c">text</text>
<polygon fill="#e7e2dd" stroke="transparent" points="78.22,-1233.81 78.22,-1293.81 442.22,-1293.81 442.22,-1233.81 78.22,-1233.81"/>
<polygon fill="none" stroke="#29235c" points="78.22,-1233.81 78.22,-1293.81 442.22,-1293.81 442.22,-1233.81 78.22,-1233.81"/>
<text text-anchor="start" x="89.22" y="-1254.01" font-family="Helvetica,sans-Serif" font-size="32.00" fill="#29235c">email &#160;&#160;&#160;</text>
<text text-anchor="start" x="379.64" y="-1255.01" font-family="Helvetica,sans-Serif" font-style="italic" font-size="32.00" fill="#29235c">text</text>
<polygon fill="#e7e2dd" stroke="transparent" points="78.22,-1173.81 78.22,-1233.81 442.22,-1233.81 442.22,-1173.81 78.22,-1173.81"/>
<polygon fill="none" stroke="#29235c" points="78.22,-1173.81 78.22,-1233.81 442.22,-1233.81 442.22,-1173.81 78.22,-1173.81"/>
<text text-anchor="start" x="89.22" y="-1194.01" font-family="Helvetica,sans-Serif" font-size="32.00" fill="#29235c">password &#160;&#160;&#160;</text>
<text text-anchor="start" x="379.64" y="-1195.01" font-family="Helvetica,sans-Serif" font-style="italic" font-size="32.00" fill="#29235c">text</text>
<polygon fill="#e7e2dd" stroke="transparent" points="78.22,-1113.81 78.22,-1173.81 442.22,-1173.81 442.22,-1113.81 78.22,-1113.81"/>
<polygon fill="none" stroke="#29235c" points="78.22,-1113.81 78.22,-1173.81 442.22,-1173.81 442.22,-1113.81 78.22,-1113.81"/>
<text text-anchor="start" x="89.22" y="-1134.01" font-family="Helvetica,sans-Serif" font-size="32.00" fill="#29235c">created_at &#160;&#160;&#160;</text>
<text text-anchor="start" x="283.66" y="-1135.01" font-family="Helvetica,sans-Serif" font-style="italic" font-size="32.00" fill="#29235c">timestamp</text>
<polygon fill="#e7e2dd" stroke="transparent" points="78.22,-1053.81 78.22,-1113.81 442.22,-1113.81 442.22,-1053.81 78.22,-1053.81"/>
<polygon fill="none" stroke="#29235c" points="78.22,-1053.81 78.22,-1113.81 442.22,-1113.81 442.22,-1053.81 78.22,-1053.81"/>
<text text-anchor="start" x="88.88" y="-1074.01" font-family="Helvetica,sans-Serif" font-size="32.00" fill="#29235c">updated_at &#160;&#160;&#160;</text>
<text text-anchor="start" x="283.94" y="-1075.01" font-family="Helvetica,sans-Serif" font-style="italic" font-size="32.00" fill="#29235c">timestamp</text>
<polygon fill="none" stroke="#29235c" stroke-width="2" points="77.22,-1052.81 77.22,-1474.81 443.22,-1474.81 443.22,-1052.81 77.22,-1052.81"/>
</g>
<!-- users&#45;&gt;carts -->
<!-- users&#45;&gt;carts -->
<g id="edge14" class="edge">
<title>users:e&#45;&gt;carts:w</title>
<path fill="none" stroke="#29235c" stroke-width="3" d="M443.22,-1383.81C605.18,-1383.81 433.33,-769.07 556.43,-663.81 600.38,-626.23 1034.52,-624.43 1076.86,-663.81 1117.48,-701.6 1103.84,-1107.07 1112.86,-1161.81 1134.44,-1292.84 1057.91,-1450.27 1179.74,-1458.48"/>
<polygon fill="#29235c" stroke="#29235c" stroke-width="3" points="1179.97,-1461.99 1190.08,-1458.81 1180.2,-1454.99 1179.97,-1461.99"/>
<text text-anchor="middle" x="1196.3" y="-1468.41" font-family="Helvetica,sans-Serif" font-size="32.00" fill="#29235c">*</text>
<text text-anchor="middle" x="434.32" y="-1393.41" font-family="Helvetica,sans-Serif" font-size="32.00" fill="#29235c">1</text>
</g>
<!-- orders -->
<g id="orders" class="node">
<title>orders</title>
<ellipse fill="none" stroke="black" stroke-width="0" cx="816.65" cy="-1293.81" rx="260.43" ry="257.27"/>
<polygon fill="#1d71b8" stroke="transparent" points="634.65,-1413.81 634.65,-1473.81 998.65,-1473.81 998.65,-1413.81 634.65,-1413.81"/>
<polygon fill="none" stroke="#29235c" points="634.65,-1413.81 634.65,-1473.81 998.65,-1473.81 998.65,-1413.81 634.65,-1413.81"/>
<text text-anchor="start" x="709.06" y="-1435.01" font-family="Helvetica,sans-Serif" font-weight="bold" font-size="32.00" fill="#ffffff"> &#160;&#160;&#160;&#160;&#160;&#160;orders &#160;&#160;&#160;&#160;&#160;&#160;</text>
<polygon fill="#e7e2dd" stroke="transparent" points="634.65,-1353.81 634.65,-1413.81 998.65,-1413.81 998.65,-1353.81 634.65,-1353.81"/>
<polygon fill="none" stroke="#29235c" points="634.65,-1353.81 634.65,-1413.81 998.65,-1413.81 998.65,-1353.81 634.65,-1353.81"/>
<text text-anchor="start" x="645.65" y="-1375.01" font-family="Helvetica,sans-Serif" font-weight="bold" font-size="32.00" fill="#29235c">id</text>
<text text-anchor="start" x="670.54" y="-1375.01" font-family="Helvetica,sans-Serif" font-size="32.00" fill="#29235c"> &#160;&#160;&#160;</text>
<text text-anchor="start" x="936.07" y="-1375.01" font-family="Helvetica,sans-Serif" font-style="italic" font-size="32.00" fill="#29235c">text</text>
<polygon fill="#e7e2dd" stroke="transparent" points="634.65,-1293.81 634.65,-1353.81 998.65,-1353.81 998.65,-1293.81 634.65,-1293.81"/>
<polygon fill="none" stroke="#29235c" points="634.65,-1293.81 634.65,-1353.81 998.65,-1353.81 998.65,-1293.81 634.65,-1293.81"/>
<text text-anchor="start" x="645.65" y="-1314.01" font-family="Helvetica,sans-Serif" font-size="32.00" fill="#29235c">user_id &#160;&#160;&#160;</text>
<text text-anchor="start" x="936.07" y="-1315.01" font-family="Helvetica,sans-Serif" font-style="italic" font-size="32.00" fill="#29235c">text</text>
<polygon fill="#e7e2dd" stroke="transparent" points="634.65,-1233.81 634.65,-1293.81 998.65,-1293.81 998.65,-1233.81 634.65,-1233.81"/>
<polygon fill="none" stroke="#29235c" points="634.65,-1233.81 634.65,-1293.81 998.65,-1293.81 998.65,-1233.81 634.65,-1233.81"/>
<text text-anchor="start" x="645.65" y="-1254.01" font-family="Helvetica,sans-Serif" font-size="32.00" fill="#29235c">total_price &#160;&#160;&#160;</text>
<text text-anchor="start" x="873.87" y="-1255.01" font-family="Helvetica,sans-Serif" font-style="italic" font-size="32.00" fill="#29235c">numeric</text>
<polygon fill="#e7e2dd" stroke="transparent" points="634.65,-1173.81 634.65,-1233.81 998.65,-1233.81 998.65,-1173.81 634.65,-1173.81"/>
<polygon fill="none" stroke="#29235c" points="634.65,-1173.81 634.65,-1233.81 998.65,-1233.81 998.65,-1173.81 634.65,-1173.81"/>
<text text-anchor="start" x="645.65" y="-1194.01" font-family="Helvetica,sans-Serif" font-size="32.00" fill="#29235c">created_at &#160;&#160;&#160;</text>
<text text-anchor="start" x="840.09" y="-1195.01" font-family="Helvetica,sans-Serif" font-style="italic" font-size="32.00" fill="#29235c">timestamp</text>
<polygon fill="#e7e2dd" stroke="transparent" points="634.65,-1113.81 634.65,-1173.81 998.65,-1173.81 998.65,-1113.81 634.65,-1113.81"/>
<polygon fill="none" stroke="#29235c" points="634.65,-1113.81 634.65,-1173.81 998.65,-1173.81 998.65,-1113.81 634.65,-1113.81"/>
<text text-anchor="start" x="645.31" y="-1134.01" font-family="Helvetica,sans-Serif" font-size="32.00" fill="#29235c">updated_at &#160;&#160;&#160;</text>
<text text-anchor="start" x="840.37" y="-1135.01" font-family="Helvetica,sans-Serif" font-style="italic" font-size="32.00" fill="#29235c">timestamp</text>
<polygon fill="none" stroke="#29235c" stroke-width="2" points="633.65,-1112.81 633.65,-1474.81 999.65,-1474.81 999.65,-1112.81 633.65,-1112.81"/>
</g>
<!-- users&#45;&gt;orders -->
<!-- users&#45;&gt;orders -->
<g id="edge16" class="edge">
<title>users:e&#45;&gt;orders:w</title>
<path fill="none" stroke="#29235c" stroke-width="3" d="M443.22,-1383.81C528.49,-1383.81 543.78,-1328.41 623.58,-1324.08"/>
<polygon fill="#29235c" stroke="#29235c" stroke-width="3" points="623.74,-1327.58 633.65,-1323.81 623.56,-1320.58 623.74,-1327.58"/>
<text text-anchor="middle" x="627.42" y="-1333.41" font-family="Helvetica,sans-Serif" font-size="32.00" fill="#29235c">*</text>
<text text-anchor="middle" x="452.11" y="-1393.41" font-family="Helvetica,sans-Serif" font-size="32.00" fill="#29235c">1</text>
</g>
<!-- merchants -->
<g id="merchants" class="node">
<title>merchants</title>
<ellipse fill="none" stroke="black" stroke-width="0" cx="816.65" cy="-845.81" rx="211.35" ry="172.57"/>
<polygon fill="#1d71b8" stroke="transparent" points="669.65,-905.81 669.65,-965.81 964.65,-965.81 964.65,-905.81 669.65,-905.81"/>
<polygon fill="none" stroke="#29235c" points="669.65,-905.81 669.65,-965.81 964.65,-965.81 964.65,-905.81 669.65,-905.81"/>
<text text-anchor="start" x="680.22" y="-927.01" font-family="Helvetica,sans-Serif" font-weight="bold" font-size="32.00" fill="#ffffff"> &#160;&#160;&#160;&#160;&#160;&#160;merchants &#160;&#160;&#160;&#160;&#160;&#160;</text>
<polygon fill="#e7e2dd" stroke="transparent" points="669.65,-845.81 669.65,-905.81 964.65,-905.81 964.65,-845.81 669.65,-845.81"/>
<polygon fill="none" stroke="#29235c" points="669.65,-845.81 669.65,-905.81 964.65,-905.81 964.65,-845.81 669.65,-845.81"/>
<text text-anchor="start" x="680.65" y="-867.01" font-family="Helvetica,sans-Serif" font-weight="bold" font-size="32.00" fill="#29235c">id</text>
<text text-anchor="start" x="705.54" y="-867.01" font-family="Helvetica,sans-Serif" font-size="32.00" fill="#29235c"> &#160;&#160;&#160;</text>
<text text-anchor="start" x="902.07" y="-867.01" font-family="Helvetica,sans-Serif" font-style="italic" font-size="32.00" fill="#29235c">text</text>
<polygon fill="#e7e2dd" stroke="transparent" points="669.65,-785.81 669.65,-845.81 964.65,-845.81 964.65,-785.81 669.65,-785.81"/>
<polygon fill="none" stroke="#29235c" points="669.65,-785.81 669.65,-845.81 964.65,-845.81 964.65,-785.81 669.65,-785.81"/>
<text text-anchor="start" x="680.65" y="-806.01" font-family="Helvetica,sans-Serif" font-size="32.00" fill="#29235c">name &#160;&#160;&#160;</text>
<text text-anchor="start" x="902.07" y="-807.01" font-family="Helvetica,sans-Serif" font-style="italic" font-size="32.00" fill="#29235c">text</text>
<polygon fill="#e7e2dd" stroke="transparent" points="669.65,-725.81 669.65,-785.81 964.65,-785.81 964.65,-725.81 669.65,-725.81"/>
<polygon fill="none" stroke="#29235c" points="669.65,-725.81 669.65,-785.81 964.65,-785.81 964.65,-725.81 669.65,-725.81"/>
<text text-anchor="start" x="680.65" y="-746.01" font-family="Helvetica,sans-Serif" font-size="32.00" fill="#29235c">user_id &#160;&#160;&#160;</text>
<text text-anchor="start" x="902.07" y="-747.01" font-family="Helvetica,sans-Serif" font-style="italic" font-size="32.00" fill="#29235c">text</text>
<polygon fill="none" stroke="#29235c" stroke-width="2" points="668.15,-724.81 668.15,-966.81 965.15,-966.81 965.15,-724.81 668.15,-724.81"/>
</g>
<!-- users&#45;&gt;merchants -->
<!-- users&#45;&gt;merchants -->
<g id="edge12" class="edge">
<title>users:e&#45;&gt;merchants:w</title>
<path fill="none" stroke="#29235c" stroke-width="3" d="M443.22,-1383.81C609.25,-1383.81 499.56,-1183.8 556.43,-1027.81 600,-908.31 541.26,-763.95 658.35,-756.14"/>
<polygon fill="#29235c" stroke="#29235c" stroke-width="3" points="658.76,-759.63 668.65,-755.81 658.54,-752.64 658.76,-759.63"/>
<text text-anchor="middle" x="659.75" y="-727.01" font-family="Helvetica,sans-Serif" font-size="32.00" fill="#29235c">1</text>
<text text-anchor="middle" x="434.32" y="-1355.01" font-family="Helvetica,sans-Serif" font-size="32.00" fill="#29235c">1</text>
</g>
<!-- orders&#45;&gt;carts -->
<!-- orders&#45;&gt;carts -->
<g id="edge4" class="edge">
<title>orders:e&#45;&gt;carts:w</title>
<path fill="none" stroke="#29235c" stroke-width="3" d="M999.65,-1383.81C1099.85,-1383.81 1087.36,-1509.74 1179.85,-1518.35"/>
<polygon fill="#29235c" stroke="#29235c" stroke-width="3" points="1179.93,-1521.86 1190.08,-1518.81 1180.24,-1514.86 1179.93,-1521.86"/>
<text text-anchor="middle" x="1181.18" y="-1528.41" font-family="Helvetica,sans-Serif" font-size="32.00" fill="#29235c">1</text>
<text text-anchor="middle" x="990.75" y="-1393.41" font-family="Helvetica,sans-Serif" font-size="32.00" fill="#29235c">1</text>
</g>
<!-- orders&#45;&gt;order_items -->
<!-- orders&#45;&gt;order_items -->
<g id="edge6" class="edge">
<title>orders:e&#45;&gt;order_items:w</title>
<path fill="none" stroke="#29235c" stroke-width="3" d="M999.65,-1383.81C1226.9,-1383.81 967.42,-915.32 1179.94,-901.14"/>
<polygon fill="#29235c" stroke="#29235c" stroke-width="3" points="1180.2,-904.64 1190.08,-900.81 1179.97,-897.64 1180.2,-904.64"/>
<text text-anchor="middle" x="1196.3" y="-910.41" font-family="Helvetica,sans-Serif" font-size="32.00" fill="#29235c">*</text>
<text text-anchor="middle" x="990.75" y="-1355.01" font-family="Helvetica,sans-Serif" font-size="32.00" fill="#29235c">1</text>
</g>
</g>
</svg>
